<?xml version="1.0" encoding="utf-8"?>
<!-- Generator: Adobe Illustrator 28.3.0, SVG Export Plug-In . SVG Version: 6.00 Build 0)  -->
<svg version="1.0" id="katman_1" xmlns="http://www.w3.org/2000/svg" xmlns:xlink="http://www.w3.org/1999/xlink" x="0px" y="0px"
	 viewBox="0 0 841.89 595.28" style="enable-background:new 0 0 841.89 595.28;" xml:space="preserve">
<style type="text/css">
	.st0{fill:#1D1D1B;}
	.st1{fill:#E61E28;}
</style>
<path class="st0" d="M136.55,230.73c8.8,2.93,15.58,8.07,20.35,15.4l0.82,1.1l17.32-12.65c-0.55-0.82-11-17.05-31.62-24.2
	c-15.95-5.5-38.22-6.05-55,10.17c-12.37,12.1-13.47,29.15-7.97,40.15c8.52,16.77,23.92,20.35,39.6,23.37
	c3.85,0.82,7.97,1.65,11.82,2.47c17.32,4.4,20.9,9.35,21.17,17.32c0.28,6.05-4.67,17.32-25.85,18.42
	c-28.6,1.38-39.87-18.97-40.42-19.8l-0.82-1.38l-17.32,12.65c0.82,1.38,17.05,29.97,56.1,29.97c1.1,0,2.47,0,3.57,0
	c35.2-1.65,47.02-25.3,46.2-40.7c-1.38-27.77-27.5-34.37-37.4-37.12c-4.4-1.1-8.8-1.92-13.2-2.75c-14.3-2.75-21.17-4.95-24.47-11.82
	c-1.65-3.3-1.65-10.17,3.57-15.12C112.35,227.15,125.83,227.15,136.55,230.73z"/>
<path class="st0" d="M409.62,343.75h21.17v-96.52h-21.17v7.15c-8.25-6.05-18.42-9.62-29.15-9.62c-26.95,0-48.95,22-48.95,48.95v1.37
	c0,26.95,22,48.95,48.95,48.95c11,0,21.17-3.57,29.15-9.63V343.75z M381.84,322.3c-15.12,0-27.5-12.37-27.5-27.5v-0.27
	c0-14.85,11-27.5,25.85-28.6c15.95-1.1,29.42,11.82,29.42,27.5v1.37C409.62,309.93,397.24,322.3,381.84,322.3z"/>
<rect x="449.21" y="207.08" class="st0" width="21.17" height="136.67"/>
<rect x="488.81" y="207.08" class="st0" width="21.17" height="136.67"/>
<path class="st0" d="M640.33,343.75h21.17v-65.72l-21.17-13.75V343.75z"/>
<path class="st0" d="M751.98,247.23v7.15c-8.25-6.05-18.42-9.62-29.15-9.62c-26.95,0-48.95,22-48.95,48.95v1.37
	c0,26.95,22,48.95,48.95,48.95c11,0,20.9-3.57,29.15-9.63c0,1.38-0.28,4.68-0.55,6.88c-3.02,14.85-16.22,25.85-31.9,25.85
	c-12.65,0-23.65-7.42-29.15-17.87l-15.67,15.12c9.62,14.3,26.12,23.92,44.82,23.92c28.87,0,52.52-22.55,53.9-51.15v-89.92H751.98z
	 M751.98,294.8c0,15.12-12.37,27.5-27.5,27.5s-27.5-12.37-27.5-27.5v-0.27c0-14.85,11-27.5,25.85-28.6
	c16.22-1.1,29.42,11.82,29.42,27.5v1.37H751.98z"/>
<path class="st0" d="M263.05,282.7c0.27-9.62,7.42-17.05,16.77-17.05c9.9,0,17.87,8.52,17.87,18.42v59.95h21.17v-66.55
	c0-18.42-14.3-33.27-31.9-33.27c-12.37,0-22.82,6.87-28.32,17.05c-5.5-10.17-15.95-17.05-27.77-17.05c-9.07,0-17.05,3.85-22.82,9.62
	v-7.15h-21.17v97.07h21.17v-61.32c0-8.8,6.6-16.22,15.4-17.05c0.28,0,0.82,0,1.37,0c9.9,0,17.05,7.97,17.05,17.87
	c0,8.43,0,28.6,0,60.5h21.17V282.7z"/>
<path class="st1" d="M661.5,227.98l-19.52,12.92c-1.1,0.82-1.65,1.92-1.65,3.02v7.97c0,1.37,0.55,2.47,1.65,3.02l19.52,12.92
	c1.92,1.1,4.12,0,4.12-2.2v-35.47C665.63,228.25,663.43,226.88,661.5,227.98z"/>
<path class="st0" d="M631.26,248.88c0-23.1-18.7-41.8-41.8-41.8h-54.72h-6.32v136.67h21.17v-53.07h23.37l28.6,53.07h27.5
	l-29.7-54.17C617.78,285.18,631.26,268.68,631.26,248.88z M589.46,269.23h-28.6h-11v-40.97h39.6c11.27,0,20.35,9.07,20.35,20.35
	C610.08,260.15,600.73,269.23,589.46,269.23z"/>
</svg>
