<svg xml:space="preserve" style="enable-background:new 0 0 66.6 11.1;" viewBox="0 0 66.6 11.1" y="0px" x="0px" xmlns:xlink="http://www.w3.org/1999/xlink" xmlns="http://www.w3.org/2000/svg" id="图层_1" version="1.1">
<style type="text/css">
	.st0{fill:#020202;}
</style>
<g>
	<path d="M64.5,0.2v7.6l-4.2-7.6h-2.8v10.6h2.1V3.1l4.3,7.7h2.7V0.2H64.5z" class="st0"></path>
	<path d="M33.5,3.3c0-1.7-1.4-3.1-3.1-3.1h-5.8v10.6h2.2V2h3.3c0.7,0,1.3,0.6,1.3,1.3s-0.6,1.3-1.3,1.3h-2.4l3.6,6.2
		h2.4l-2.6-4.4C32.5,6.1,33.5,4.8,33.5,3.3L33.5,3.3z" class="st0"></path>
	<path d="M7,6.2c0,1.3-1.1,2.4-2.4,2.4S2.2,7.5,2.2,6.2v-6H0v6.2C0,9,2.1,11,4.7,11s4.7-2.1,4.7-4.6V0.2H7.2v6H7z" class="st0"></path>
	<path d="M16.9,4.6v1.9h3c-0.1,0.6-0.4,1.2-0.9,1.6c-0.6,0.5-1.5,0.8-2.4,0.8c-1.7-0.1-3-1.5-3.1-3.2
		c0-1.9,1.5-3.4,3.3-3.4c0.8,0,1.6,0.3,2.2,0.8h2.8c-0.5-1.3-1.5-2.2-2.8-2.7c-2.6-1-5.6,0.1-7,2.5c-0.1,0.2-0.2,0.4-0.3,0.6
		c-1.1,2.8,0.2,6.1,3.1,7.2c2.5,1,5.3,0,6.7-2.1c0,0,0,0,0-0.1c0.5-0.8,0.7-1.7,0.7-2.7c0-0.4,0-0.8-0.1-1.2H16.9L16.9,4.6z" class="st0"></path>
	<path d="M35.7,10.8h8.6V8.9h-6.4V6.5h5.4V4.6h-5.4V2.2h6.4V0.3h-8.5L35.7,10.8L35.7,10.8z" class="st0"></path>
	<path d="M46.6,10.8h8.5V8.9h-6.4V6.5h5.4V4.6h-5.4V2.2h6.4V0.3h-8.5V10.8z" class="st0"></path>
</g>
</svg>
